<?xml version="1.0" standalone="no"?>
<!DOCTYPE svg PUBLIC "-//W3C//DTD SVG 20010904//EN"
 "http://www.w3.org/TR/2001/REC-SVG-20010904/DTD/svg10.dtd">
<svg version="1.0" xmlns="http://www.w3.org/2000/svg"
 width="700.000000pt" height="700.000000pt" viewBox="0 0 700.000000 700.000000"
 preserveAspectRatio="xMidYMid meet">
<metadata>
Created by potrace 1.11, written by Peter Selinger 2001-2013
</metadata>
<g transform="translate(0.000000,700.000000) scale(0.100000,-0.100000)"
fill="#000000" stroke="none">
<path d="M290 6797 c0 -7 4 -17 9 -22 5 -6 73 -136 151 -290 78 -154 200 -392
270 -530 70 -137 188 -369 262 -515 128 -250 331 -649 582 -1142 61 -120 174
-340 250 -490 76 -150 186 -365 243 -478 58 -113 109 -210 115 -217 6 -7 7
-13 3 -13 -4 0 -3 -6 3 -12 5 -7 94 -179 198 -383 l188 -370 0 -1120 1 -1120
915 0 915 0 2 1111 1 1111 91 174 c50 96 96 185 102 199 6 14 15 32 19 40 5 8
43 83 86 165 42 83 98 191 124 240 26 50 92 178 147 285 56 107 137 265 180
350 44 85 114 220 155 300 42 80 113 218 159 308 46 89 109 210 139 270 31 59
116 224 189 367 74 143 153 296 176 340 23 44 91 175 150 290 59 116 140 273
180 350 40 77 108 210 152 295 44 85 121 234 172 331 50 97 91 179 91 183 0 3
-451 5 -1001 4 l-1002 -3 -168 -375 c-183 -410 -193 -432 -239 -534 -52 -118
-57 -129 -94 -209 -20 -44 -36 -80 -36 -82 0 -2 -15 -36 -33 -77 -66 -143
-117 -256 -226 -499 -60 -135 -119 -266 -130 -290 -19 -43 -85 -191 -226 -506
-38 -84 -71 -153 -74 -153 -4 0 -26 46 -50 103 -42 98 -61 142 -111 252 -32
73 -41 93 -120 275 -39 91 -87 198 -106 238 -19 40 -34 76 -34 81 0 4 -8 25
-19 47 -10 21 -25 55 -34 74 -8 19 -24 55 -35 80 -36 83 -472 1078 -482 1102
-5 13 -54 124 -108 248 l-99 225 -996 3 c-815 2 -997 0 -997 -11z"/>
</g>
</svg>
